Coordinates
version=1
nRows=7
nColumns=33
inDegrees=yes

Units are S.I. units (second, meters, Newtons, ...)
Angles are in degrees.

endheader
time	ground_thorax_rot_x	ground_thorax_rot_y	ground_thorax_rot_z	ground_thorax_tx	ground_thorax_ty	ground_thorax_tz	clav_prot_r	clav_elev_r	scapula_abduction_r	scapula_elevation_r	scapula_upward_rot_r	scapula_winging_r	shoulder_elv_r	plane_of_elev_r	axial_rot_r	elbow_flexion_r	pro_sup_r	wrist_flex_r	wrist_dev_r	clav_prot_l	clav_elev_l	scapula_abduction_l	scapula_elevation_l	scapula_upward_rot_l	scapula_winging_l	shoulder_elv_l	plane_of_elev_l	axial_rot_l	elbow_flexion_l	pro_sup_l	wrist_flex_l	wrist_dev_l
      5.65000000	     38.59988566	     -3.74110340	      3.83251164	    -90.35022185	    880.65461198	     -7.44791318	     13.87202694	     42.57224185	     45.00000000	     45.00000000	    -19.44613664	   2071.31494219	  -1733.67147536	     31.88392091	     61.09969423	   -340.50601996	     81.93394919	     16.18698755	      2.88800972	      8.04109896	    -45.00000000	    -45.00000000	     45.00000000	    -16.50899222	   -264.73146044	  -2974.31668606	    141.05257830	    153.79858764	    369.80053363	     11.29867447	     11.67968937	    -21.43102649
      5.66000000	     38.48761404	     -3.93101676	      3.90240143	    -86.36698002	    877.66608089	     -7.19387226	     13.63252957	     42.69485951	     45.00000000	     45.00000000	    -18.65573354	   2071.64326043	  -1734.00989315	     31.86690629	     60.68023633	   -340.47475000	     81.68793521	     16.24810409	      2.92285141	      7.82060737	    -45.00000000	    -45.00000000	     45.00000000	    -16.17377615	   -265.08166262	  -2974.69188177	    141.06586699	    154.12295515	    369.50669246	      9.64057105	     12.03265549	    -21.14577430
      5.67000000	     38.37830762	     -3.99449730	      3.94766741	    -82.34325898	    874.51888798	     -6.91902344	     13.75482857	     42.77873226	     45.00000000	     45.00000000	    -18.48595440	   2072.04019630	  -1734.19145898	     31.94455646	     59.70766906	   -340.53688895	     81.37375515	     16.35198128	      2.98695623	      7.64234031	    -45.00000000	    -45.00000000	     45.00000000	    -15.81762106	   -265.50572135	  -2975.07339015	    141.05038938	    154.45698502	    369.31176137	      8.26629466	     12.38311602	    -20.88646786
      5.68000000	     38.29341144	     -4.14911107	      3.91242647	    -78.28124186	    871.23667596	     -6.61886349	     13.83619760	     42.89491036	     45.00000000	     45.00000000	    -18.15536871	   2072.50859995	  -1734.35924460	     31.93178791	     58.81785822	   -340.54225259	     80.88983091	     16.48037847	      3.05232549	      7.40385505	    -45.00000000	    -45.00000000	     45.00000000	    -15.38999580	   -265.93440482	  -2975.52717877	    141.00626287	    154.82906089	    369.07886140	      7.07108042	     12.72104769	    -20.61336583
      5.69000000	     38.21647917	     -4.29554473	      3.84588976	    -74.18429236	    867.84584251	     -6.28883823	     14.01418606	     43.01870917	     45.00000000	     45.00000000	    -17.90815646	   2072.95712858	  -1734.47078550	     31.95466895	     57.95073484	   -340.58664532	     80.25140818	     16.61966017	      3.13679323	      7.19290178	    -45.00000000	    -45.00000000	     45.00000000	    -14.97508024	   -266.37732672	  -2975.92040579	    140.93742597	    155.27347616	    368.91982583	      6.12035495	     13.03382045	    -20.36204814
      5.70000000	     38.09250372	     -4.34059749	      3.98360187	    -70.06372641	    864.36499346	     -5.92893588	     14.09995493	     43.05534369	     45.00000000	     45.00000000	    -18.00136655	   2073.35622598	  -1734.72220477	     32.15586513	     57.17607663	   -340.62820982	     79.50506489	     16.70631131	      3.22391040	      7.16951214	    -45.00000000	    -45.00000000	     45.00000000	    -15.02604434	   -266.90177563	  -2976.21065496	    140.92412594	    155.81332434	    368.76186468	      5.48935734	     13.30676080	    -20.11499670
      5.71000000	     38.03162491	     -4.55485647	      3.91517275	    -65.92183606	    860.81637950	     -5.53610963	     14.07560710	     43.16940006	     45.00000000	     45.00000000	    -17.53624108	   2073.88856373	  -1734.91346814	     32.03844911	     56.41418210	   -340.70404015	     78.51258264	     16.86298354	      3.36132118	      6.80101882	    -45.00000000	    -45.00000000	     45.00000000	    -14.59003148	   -267.22792321	  -2976.70650019	    140.75670109	    156.19118210	    368.51356213	      5.09032560	     13.40727100	    -19.86610930
